<svg viewBox="0 0 291 48" fill="none" xmlns="http://www.w3.org/2000/svg">
<g clip-path="url(#clip0_463_2)">
<path d="M61.6839 18.9966C56.5519 20.6644 51.4199 22.3307 46.2879 23.9985V37.7116H36.0024V20.6567C30.8581 18.9858 25.7154 17.315 20.5711 15.6441C20.5711 22.9999 20.5711 30.3558 20.5711 37.7116H10.2855C10.2855 29.2419 10.2855 20.7721 10.2855 12.3023C13.714 13.4162 17.1441 14.5302 20.5711 15.6441V10.2853H36.0024C36.0024 13.7424 36.0024 17.1996 36.0024 20.6567C39.4309 21.7706 42.8594 22.8845 46.2879 23.9985V10.2853H61.6839C61.6839 13.1885 61.6839 16.0933 61.6839 18.9966ZM0 0V48H71.971V0H0Z" fill="#3772FF"/>
<path d="M99.2114 22.2231V10.29H111.213V12.7594H102.845V15.0227H111.213V17.492H107.176H102.845V19.7553H111.213V22.2231H99.2114Z" fill="#060F35"/>
<path d="M97.9878 37.7088V25.7742H109.988V28.2436H101.621V30.5068H109.988V32.9762H105.951H101.621V35.2394H109.988V37.7088H97.9878Z" fill="#060F35"/>
<path d="M124.381 15.0489C124.385 15.0027 124.388 14.9566 124.388 14.9089L124.385 14.0011L124.384 13.9965C124.381 13.9411 124.376 13.8903 124.367 13.8396C124.365 13.8334 124.365 13.8273 124.364 13.8226C124.356 13.775 124.345 13.7273 124.333 13.6826C124.33 13.6749 124.327 13.6673 124.325 13.6596C124.311 13.618 124.299 13.5765 124.281 13.538C124.276 13.5272 124.273 13.518 124.268 13.5088C124.251 13.4734 124.234 13.438 124.214 13.4057C124.207 13.3918 124.197 13.3795 124.19 13.3672C124.171 13.3395 124.153 13.3103 124.131 13.2842C124.119 13.2688 124.104 13.2518 124.088 13.2365C124.07 13.2149 124.053 13.1949 124.033 13.1765C124.008 13.1534 123.984 13.1334 123.957 13.1134C123.944 13.1026 123.931 13.0903 123.916 13.0795C123.611 12.8564 123.16 12.7487 122.569 12.7564V12.7533L122.119 12.7549V12.7518H116.988V16.2551H122.119H122.634C122.699 16.2551 122.76 16.2536 122.82 16.249C122.834 16.249 122.848 16.249 122.862 16.2474C122.922 16.2428 122.979 16.2382 123.034 16.2336C123.042 16.232 123.048 16.2305 123.057 16.2305C123.233 16.209 123.391 16.1736 123.531 16.1259C123.54 16.1228 123.55 16.1197 123.557 16.1166C123.6 16.1013 123.642 16.0843 123.68 16.0659C123.691 16.0613 123.7 16.0582 123.71 16.0536C123.879 15.972 124.017 15.8659 124.122 15.7351C124.13 15.7274 124.136 15.7197 124.142 15.712C124.165 15.6812 124.188 15.6489 124.208 15.6166C124.211 15.612 124.214 15.6043 124.219 15.5981C124.281 15.4904 124.327 15.3704 124.354 15.2381C124.356 15.2289 124.359 15.2212 124.361 15.212C124.368 15.1704 124.374 15.1273 124.379 15.0843C124.381 15.072 124.381 15.0596 124.382 15.0489H124.381ZM127.574 13.2795C127.574 13.2842 127.575 13.2888 127.575 13.2949L127.583 15.4781C127.581 15.592 127.575 15.7043 127.566 15.8135C127.563 15.8428 127.561 15.8705 127.558 15.8997C127.548 16.0043 127.534 16.1074 127.514 16.2074C127.511 16.229 127.504 16.249 127.501 16.269C127.434 16.589 127.324 16.8782 127.174 17.1367C127.166 17.1521 127.158 17.1675 127.147 17.1829C127.1 17.2613 127.046 17.3367 126.99 17.409C126.975 17.429 126.96 17.4475 126.944 17.466C126.689 17.7798 126.356 18.0337 125.949 18.2306C125.926 18.2414 125.904 18.2522 125.881 18.2629C125.784 18.306 125.686 18.3476 125.581 18.3845C125.562 18.3922 125.541 18.3983 125.521 18.406C125.181 18.5229 124.799 18.6076 124.376 18.6583C124.359 18.6599 124.341 18.663 124.322 18.666C124.188 18.6799 124.051 18.6906 123.91 18.6999C123.876 18.7014 123.842 18.703 123.808 18.7045C123.664 18.7122 123.514 18.7168 123.362 18.7168H122.934V18.7183H116.99V22.2247H113.356V10.2917H115.56V10.2886H122.934V10.2917H123.206V10.2947C124.627 10.2763 125.712 10.5394 126.446 11.0748C126.481 11.0994 126.512 11.1302 126.547 11.1579C126.607 11.2056 126.669 11.2533 126.724 11.3071C126.773 11.3533 126.817 11.4025 126.861 11.4533C126.897 11.4917 126.932 11.5287 126.964 11.5687C127.015 11.6317 127.06 11.6994 127.104 11.7687C127.124 11.7979 127.146 11.8287 127.164 11.8594C127.212 11.9379 127.254 12.0225 127.294 12.1072C127.304 12.1302 127.317 12.1533 127.326 12.1795C127.366 12.2718 127.4 12.3702 127.432 12.4718C127.437 12.4903 127.443 12.5087 127.449 12.5272C127.478 12.6349 127.503 12.7457 127.524 12.861C127.526 12.8764 127.528 12.8887 127.531 12.9026C127.551 13.0241 127.563 13.1488 127.572 13.278L127.574 13.2795Z" fill="#060F35"/>
<path d="M128.464 17.9721L128.452 14.8826C128.454 14.718 128.463 14.5611 128.475 14.4057C128.48 14.3657 128.483 14.3241 128.486 14.2841C128.501 14.1349 128.523 13.9887 128.549 13.8472C128.555 13.818 128.563 13.7887 128.569 13.761C128.663 13.3072 128.818 12.8979 129.031 12.5333C129.045 12.5117 129.055 12.4886 129.069 12.4671C129.137 12.3563 129.212 12.2486 129.292 12.1455C129.312 12.1194 129.334 12.0917 129.355 12.0655C129.719 11.6224 130.189 11.2624 130.765 10.9839C130.797 10.9685 130.83 10.9532 130.862 10.9378C130.997 10.8762 131.139 10.8178 131.285 10.7655C131.313 10.7547 131.342 10.7455 131.37 10.7362C131.851 10.5716 132.392 10.4516 132.99 10.3793C133.016 10.3762 133.041 10.3731 133.067 10.3685C133.256 10.3485 133.452 10.3331 133.652 10.3208C133.698 10.3177 133.747 10.3147 133.795 10.3131C134 10.3023 134.21 10.2962 134.426 10.2962L138.134 10.29V10.2962C140.146 10.2685 141.681 10.6408 142.72 11.3993C142.771 11.4363 142.816 11.4778 142.863 11.5163C142.949 11.5855 143.036 11.6547 143.116 11.7301C143.183 11.7948 143.245 11.8655 143.308 11.9363C143.357 11.9901 143.408 12.0425 143.454 12.1009C143.527 12.1902 143.59 12.2856 143.653 12.3825C143.682 12.4256 143.713 12.4671 143.739 12.5117C143.805 12.624 143.864 12.7425 143.919 12.8625C143.934 12.8964 143.951 12.9287 143.967 12.9641C144.024 13.0964 144.071 13.2348 144.114 13.3779C144.122 13.4041 144.131 13.4302 144.139 13.4564C144.182 13.6087 144.217 13.7672 144.245 13.9303C144.25 13.9503 144.253 13.9687 144.256 13.9887C144.284 14.1611 144.304 14.338 144.316 14.5195C144.316 14.5272 144.317 14.5334 144.317 14.5411L144.321 15.0242H140.654V15.0226C140.638 14.9365 140.62 14.8519 140.597 14.7719C140.592 14.758 140.587 14.7426 140.583 14.7288C140.56 14.6534 140.535 14.5795 140.504 14.5103C140.497 14.4918 140.487 14.4749 140.48 14.4565C140.45 14.3918 140.42 14.3303 140.384 14.2703C140.37 14.2472 140.353 14.2241 140.338 14.2026C140.304 14.1503 140.272 14.0995 140.233 14.0534C140.209 14.0226 140.181 13.9949 140.156 13.9657C140.123 13.9287 140.09 13.8903 140.053 13.8564C140.012 13.8164 139.966 13.7795 139.919 13.7426C139.893 13.7226 139.87 13.701 139.843 13.681C139.293 13.2795 138.478 13.0825 137.413 13.0964V13.0933L135.252 13.0964C135.137 13.0964 135.026 13.0994 134.918 13.1056C134.892 13.1071 134.868 13.1071 134.841 13.1087C134.735 13.1148 134.632 13.1241 134.532 13.1348C134.518 13.1364 134.504 13.1395 134.491 13.141C134.175 13.1795 133.887 13.241 133.632 13.3302C133.618 13.3348 133.603 13.3395 133.587 13.3456C133.509 13.3733 133.435 13.4025 133.364 13.4364C133.346 13.4441 133.329 13.4518 133.312 13.461C133.006 13.6072 132.756 13.7995 132.564 14.0349C132.553 14.0487 132.541 14.0626 132.53 14.0764C132.488 14.1318 132.448 14.1872 132.412 14.2472C132.405 14.258 132.399 14.2703 132.392 14.2811C132.279 14.4749 132.198 14.6919 132.147 14.9334C132.144 14.9488 132.141 14.9626 132.138 14.978C132.122 15.0534 132.113 15.1303 132.104 15.2104C132.101 15.2319 132.101 15.2534 132.098 15.275C132.09 15.3581 132.085 15.4411 132.085 15.5273L132.091 17.1659C132.091 17.1689 132.093 17.1736 132.093 17.1766C132.099 17.2736 132.108 17.3674 132.124 17.4582C132.125 17.469 132.127 17.4797 132.128 17.489C132.144 17.5767 132.164 17.6597 132.187 17.7413C132.19 17.7551 132.195 17.769 132.199 17.7828C132.222 17.8582 132.247 17.9321 132.278 18.0028C132.285 18.0198 132.293 18.0382 132.302 18.0567C132.333 18.1198 132.362 18.1813 132.398 18.2413C132.413 18.2659 132.428 18.2875 132.444 18.3106C132.478 18.3613 132.51 18.4121 132.549 18.4598C132.573 18.489 132.601 18.5183 132.625 18.5475C132.659 18.5844 132.692 18.6213 132.729 18.6567C132.77 18.6952 132.816 18.7321 132.862 18.769C132.887 18.789 132.912 18.8121 132.938 18.8306C133.489 19.2321 134.303 19.4291 135.369 19.4152H137.528C137.645 19.4152 137.754 19.4122 137.864 19.406C137.89 19.4045 137.914 19.4045 137.941 19.4029C138.045 19.3968 138.15 19.3875 138.25 19.3768C138.264 19.3752 138.276 19.3737 138.291 19.3706C138.608 19.3337 138.893 19.2691 139.15 19.1814C139.165 19.1768 139.181 19.1721 139.196 19.1675C139.273 19.1383 139.347 19.1075 139.419 19.0752C139.438 19.0675 139.453 19.0598 139.47 19.0506C139.776 18.9044 140.026 18.7121 140.218 18.4783C140.229 18.4629 140.241 18.449 140.252 18.4352C140.295 18.3798 140.335 18.3229 140.37 18.2644C140.378 18.2536 140.384 18.2413 140.39 18.2305C140.503 18.0351 140.586 17.8198 140.635 17.5782C140.638 17.5628 140.643 17.549 140.646 17.5336C140.647 17.5197 140.649 17.5043 140.652 17.492H144.33V17.6305C144.328 17.7936 144.319 17.9521 144.307 18.1075C144.302 18.1475 144.299 18.189 144.296 18.2275C144.281 18.3782 144.259 18.5244 144.233 18.666C144.227 18.6952 144.219 18.7229 144.213 18.7521C144.117 19.2045 143.964 19.6137 143.751 19.9799C143.739 20.0014 143.727 20.0245 143.713 20.0445C143.645 20.1568 143.57 20.263 143.49 20.3661C143.47 20.3938 143.448 20.4199 143.426 20.4476C143.063 20.8892 142.594 21.2507 142.017 21.5277C141.985 21.5431 141.954 21.56 141.92 21.5738C141.785 21.6354 141.645 21.6938 141.497 21.7462C141.469 21.7569 141.44 21.7662 141.411 21.7754C140.931 21.9416 140.39 22.0616 139.793 22.1323C139.766 22.1354 139.741 22.14 139.715 22.1431C139.526 22.1646 139.33 22.18 139.13 22.1923C139.084 22.1954 139.035 22.197 138.987 22.2C138.781 22.2093 138.573 22.217 138.355 22.217H134.647C132.636 22.2431 131.1 21.8708 130.063 21.1138C130.011 21.0769 129.966 21.0353 129.919 20.9969C129.832 20.9276 129.745 20.8584 129.666 20.7846C129.597 20.7184 129.535 20.6476 129.474 20.5784C129.425 20.523 129.372 20.4707 129.328 20.4122C129.255 20.3245 129.191 20.2276 129.128 20.1322C129.1 20.0891 129.071 20.046 129.043 20.0014C128.977 19.8891 128.918 19.7722 128.863 19.6522C128.846 19.6183 128.829 19.5845 128.815 19.5491C128.758 19.4168 128.711 19.2783 128.666 19.1352C128.658 19.1106 128.651 19.0844 128.643 19.0583C128.598 18.9044 128.564 18.746 128.535 18.5829C128.532 18.5644 128.528 18.5444 128.524 18.5244C128.497 18.3536 128.478 18.1767 128.466 17.9936C128.466 17.9859 128.464 17.9798 128.464 17.9721Z" fill="#060F35"/>
<path d="M191.088 10.2854H205.286V12.7486H200.018V22.2231H196.387V12.7486H191.088V10.2854Z" fill="#060F35"/>
<path d="M210.064 10.29H206.431V22.2231H210.064V22.2216L212.758 22.2231L218.5 12.0025V22.2231H222.131V10.29H215.804L210.064 20.5092V10.29Z" fill="#060F35"/>
<path d="M214.202 25.7771H210.57V37.7117H214.202V37.7102L216.898 37.7117L222.638 27.4911V37.7117H226.271V25.7771H219.942L214.202 35.9962V25.7771Z" fill="#060F35"/>
<path d="M231.887 25.7771H228.256V37.7117H231.887V37.7102L234.582 37.7117L240.323 27.4911V37.7117H243.957V25.7771H237.627L231.887 35.9962V25.7771Z" fill="#060F35"/>
<path d="M233.571 19.7553V19.7538C234.324 19.7723 234.721 19.3753 234.702 18.623C234.721 17.8721 234.324 17.4737 233.571 17.4921V17.4906H227.751V19.7553H233.571ZM227.751 12.7595V15.0227H232.945V15.0212C233.699 15.0412 234.096 14.6427 234.077 13.8903C234.096 13.1395 233.699 12.741 232.946 12.7595H227.751ZM224.118 22.2232V10.2901H232.749V10.2917H234.121C236.513 10.2332 237.72 11.5594 237.72 13.5842C237.72 14.9658 237.294 15.7212 236.573 16.1289C237.668 16.4336 238.346 17.1844 238.346 18.9291C238.346 20.9554 237.14 22.2801 234.745 22.2216H232.749V22.2232H224.118Z" fill="#060F35"/>
<path d="M239.508 22.2246V10.29H243.141V15.0226H251.66V10.29H255.293V22.2246H251.66V17.492H247.471H247.33H243.141V22.2246H239.508Z" fill="#060F35"/>
<path d="M272.74 10.29H276.373V22.2231H272.74V10.29Z" fill="#060F35"/>
<path d="M158.166 32.7237C158.172 32.6422 158.178 32.5591 158.178 32.4714L158.172 30.8328C158.172 30.8297 158.172 30.8267 158.172 30.822C158.164 30.7251 158.155 30.6313 158.139 30.5405C158.138 30.5297 158.136 30.5189 158.133 30.5097C158.119 30.422 158.101 30.3389 158.078 30.2574C158.073 30.2435 158.069 30.2297 158.064 30.2158C158.041 30.1405 158.016 30.0666 157.985 29.9974C157.978 29.9789 157.969 29.9604 157.961 29.9435C157.932 29.8789 157.899 29.8174 157.864 29.7574C157.85 29.7343 157.835 29.7112 157.819 29.6881C157.787 29.6373 157.753 29.5866 157.715 29.5389C157.69 29.5096 157.664 29.4804 157.638 29.4527C157.602 29.4143 157.572 29.3773 157.535 29.3419C157.493 29.3035 157.447 29.2666 157.401 29.2296C157.375 29.2096 157.351 29.1865 157.325 29.1681C156.774 28.7665 155.959 28.5696 154.894 28.5834V28.5804L153.146 28.5834C153.03 28.5834 152.92 28.5865 152.81 28.5927C152.784 28.5942 152.76 28.5942 152.733 28.5957C152.629 28.6019 152.524 28.6111 152.426 28.6219C152.412 28.6234 152.398 28.625 152.384 28.6281C152.066 28.665 151.781 28.7281 151.525 28.8173C151.51 28.8219 151.493 28.8265 151.479 28.8327C151.402 28.8588 151.327 28.8896 151.255 28.9235C151.238 28.9311 151.221 28.9388 151.204 28.9481C150.899 29.0942 150.648 29.2866 150.458 29.5204C150.445 29.5343 150.434 29.5481 150.424 29.5635C150.381 29.6189 150.341 29.6743 150.304 29.7343C150.297 29.745 150.291 29.7574 150.285 29.7681C150.171 29.962 150.09 30.1789 150.039 30.4189C150.036 30.4343 150.033 30.4497 150.03 30.4651C150.014 30.5405 150.004 30.6174 149.996 30.6974C149.993 30.719 149.993 30.7405 149.99 30.762C149.984 30.8451 149.977 30.9282 149.977 31.0144L149.984 32.6529C149.984 32.656 149.985 32.6606 149.985 32.6637C149.991 32.7606 150 32.8545 150.016 32.9453C150.017 32.956 150.019 32.9668 150.022 32.976C150.037 33.0637 150.056 33.1468 150.077 33.2283C150.082 33.2422 150.087 33.256 150.091 33.2699C150.114 33.3453 150.139 33.4176 150.17 33.4884C150.177 33.5068 150.187 33.5253 150.196 33.5422C150.225 33.6068 150.256 33.6684 150.291 33.7284C150.305 33.753 150.321 33.7745 150.336 33.7976C150.368 33.8484 150.404 33.8992 150.442 33.9469C150.465 33.9761 150.493 34.0053 150.519 34.033C150.553 34.0715 150.585 34.1084 150.621 34.1423C150.662 34.1823 150.708 34.2192 150.755 34.2561C150.781 34.2761 150.804 34.2992 150.83 34.3176C151.381 34.7192 152.196 34.9161 153.263 34.9023H155.009C155.125 34.9023 155.237 34.8992 155.345 34.8931C155.371 34.8915 155.397 34.89 155.422 34.89C155.528 34.8838 155.631 34.8746 155.731 34.8638C155.745 34.8623 155.757 34.8608 155.771 34.8577C156.09 34.8208 156.374 34.7561 156.63 34.6684C156.645 34.6638 156.662 34.6592 156.676 34.6531C156.754 34.6254 156.83 34.5946 156.901 34.5623C156.918 34.5546 156.934 34.5469 156.951 34.5377C157.258 34.3915 157.507 34.1992 157.699 33.9638C157.71 33.9499 157.722 33.9361 157.733 33.9207C157.776 33.8668 157.816 33.8099 157.852 33.7515C157.858 33.7407 157.864 33.7284 157.872 33.7161C157.984 33.5222 158.067 33.3053 158.116 33.0653C158.119 33.0499 158.124 33.036 158.127 33.0206C158.141 32.9453 158.152 32.8683 158.159 32.7868C158.162 32.7668 158.164 32.7452 158.166 32.7237ZM161.797 30.0066C161.797 30.0128 161.8 30.0204 161.8 30.0281L161.811 33.1176C161.811 33.2807 161.8 33.4391 161.788 33.5945C161.785 33.6345 161.782 33.6761 161.777 33.7161C161.762 33.8653 161.74 34.0115 161.714 34.153C161.708 34.1823 161.7 34.2099 161.696 34.2392C161.6 34.6915 161.446 35.1008 161.232 35.4669C161.22 35.4885 161.208 35.51 161.195 35.5316C161.126 35.6439 161.052 35.75 160.972 35.8531C160.951 35.8808 160.929 35.907 160.908 35.9331C160.546 36.3762 160.075 36.7378 159.498 37.0147C159.466 37.0301 159.435 37.0471 159.401 37.0609C159.266 37.1224 159.126 37.1809 158.98 37.2332C158.95 37.244 158.921 37.2532 158.893 37.2624C158.412 37.4286 157.872 37.5486 157.275 37.6194C157.248 37.624 157.222 37.6271 157.196 37.6302C157.007 37.6517 156.811 37.6671 156.613 37.6794C156.565 37.6825 156.517 37.684 156.468 37.6871C156.264 37.6963 156.054 37.704 155.837 37.704H152.541C150.53 37.7302 148.993 37.3578 147.955 36.6009C147.903 36.5639 147.86 36.5224 147.811 36.4839C147.725 36.4147 147.637 36.3455 147.56 36.2716C147.491 36.207 147.429 36.1347 147.366 36.0654C147.317 36.0101 147.266 35.9578 147.22 35.9008C147.148 35.81 147.084 35.7147 147.021 35.6193C146.992 35.5762 146.963 35.5331 146.937 35.4885C146.869 35.3762 146.811 35.2592 146.755 35.1392C146.74 35.1054 146.723 35.0715 146.707 35.0377C146.652 34.9038 146.603 34.7654 146.56 34.6238C146.552 34.5977 146.543 34.5715 146.535 34.5438C146.492 34.3915 146.457 34.233 146.429 34.0715C146.426 34.0515 146.421 34.0315 146.418 34.0115C146.39 33.8407 146.37 33.6638 146.36 33.4807C146.358 33.473 146.357 33.4668 146.357 33.4591L146.344 30.3697C146.346 30.2051 146.357 30.0481 146.369 29.8927C146.372 29.8527 146.375 29.8112 146.38 29.7712C146.395 29.622 146.415 29.4758 146.443 29.3343C146.449 29.305 146.457 29.2758 146.461 29.2481C146.557 28.7942 146.71 28.385 146.924 28.0203C146.938 27.9988 146.949 27.9757 146.961 27.9557C147.029 27.8434 147.104 27.7357 147.184 27.6326C147.206 27.6064 147.228 27.5788 147.249 27.5526C147.611 27.1095 148.082 26.7495 148.659 26.471C148.689 26.4556 148.722 26.4402 148.754 26.4248C148.889 26.3633 149.031 26.3048 149.177 26.2525C149.205 26.2417 149.234 26.2341 149.263 26.2233C149.745 26.0587 150.285 25.9386 150.882 25.8663C150.908 25.8633 150.935 25.8586 150.961 25.8556C151.15 25.8356 151.344 25.8202 151.544 25.8079C151.592 25.8048 151.639 25.8017 151.687 25.8002C151.893 25.7894 152.103 25.7833 152.32 25.7833L155.616 25.7771V25.7817C157.627 25.7556 159.163 26.1279 160.201 26.8864C160.252 26.9218 160.297 26.9633 160.346 27.0018C160.431 27.071 160.518 27.1403 160.597 27.2157C160.665 27.2803 160.726 27.3526 160.791 27.4218C160.838 27.4757 160.891 27.528 160.935 27.5864C161.008 27.6757 161.072 27.7711 161.134 27.8665C161.163 27.9111 161.194 27.9526 161.22 27.9988C161.286 28.1096 161.345 28.228 161.4 28.348C161.416 28.3819 161.434 28.4142 161.448 28.4496C161.505 28.5819 161.552 28.7204 161.596 28.8635C161.603 28.8896 161.612 28.9158 161.62 28.9419C161.663 29.0942 161.7 29.2527 161.728 29.4158C161.731 29.4358 161.734 29.4558 161.737 29.4743C161.765 29.6466 161.785 29.8235 161.797 30.0066Z" fill="#060F35"/>
<path d="M191.687 32.7237C191.695 32.6422 191.7 32.5591 191.7 32.4714L191.694 30.8328C191.694 30.8297 191.694 30.8267 191.694 30.822C191.687 30.7251 191.677 30.6313 191.663 30.5405C191.66 30.5297 191.658 30.5189 191.657 30.5097C191.641 30.422 191.623 30.3389 191.6 30.2589C191.595 30.2435 191.592 30.2297 191.587 30.2158C191.564 30.1405 191.538 30.0666 191.507 29.9974C191.501 29.9789 191.492 29.9604 191.483 29.9435C191.454 29.8789 191.423 29.8174 191.387 29.7574C191.374 29.7343 191.357 29.7112 191.343 29.6881C191.309 29.6373 191.275 29.5866 191.237 29.5389C191.213 29.5096 191.186 29.4804 191.16 29.4527C191.126 29.4143 191.093 29.3773 191.058 29.3419C191.016 29.3035 190.97 29.2666 190.924 29.2296C190.898 29.2096 190.873 29.1865 190.847 29.1681C190.296 28.7665 189.482 28.5696 188.416 28.5834V28.5804L186.668 28.5834C186.552 28.5834 186.442 28.5865 186.332 28.5927C186.306 28.5942 186.282 28.5942 186.257 28.5957C186.151 28.6019 186.048 28.6111 185.948 28.6219C185.934 28.6234 185.92 28.625 185.906 28.6281C185.589 28.665 185.303 28.7281 185.047 28.8173C185.032 28.8219 185.017 28.8265 185.003 28.8327C184.924 28.8588 184.85 28.8896 184.778 28.9235C184.76 28.9311 184.744 28.9388 184.726 28.9481C184.421 29.0942 184.172 29.2866 183.979 29.5204C183.967 29.5343 183.956 29.5481 183.946 29.5635C183.903 29.6189 183.862 29.6743 183.827 29.7343C183.819 29.745 183.813 29.7574 183.807 29.7681C183.695 29.962 183.612 30.1789 183.561 30.4189C183.559 30.4343 183.555 30.4497 183.552 30.4651C183.536 30.5405 183.527 30.6174 183.518 30.6974C183.516 30.719 183.515 30.7405 183.513 30.762C183.505 30.8451 183.501 30.9282 183.499 31.0144L183.505 32.6529C183.505 32.656 183.507 32.6606 183.507 32.6637C183.513 32.7606 183.524 32.8545 183.538 32.9453C183.539 32.956 183.542 32.9668 183.544 32.976C183.559 33.0637 183.578 33.1468 183.601 33.2283C183.606 33.2422 183.609 33.256 183.613 33.2699C183.636 33.3453 183.662 33.4176 183.692 33.4884C183.699 33.5068 183.71 33.5253 183.718 33.5422C183.747 33.6068 183.778 33.6684 183.813 33.7284C183.827 33.753 183.844 33.7745 183.858 33.7976C183.892 33.8484 183.926 33.8992 183.964 33.9469C183.987 33.9761 184.015 34.0053 184.041 34.033C184.075 34.0715 184.107 34.1084 184.144 34.1423C184.186 34.1823 184.23 34.2192 184.276 34.2561C184.303 34.2761 184.326 34.2992 184.353 34.3176C184.903 34.7192 185.718 34.9161 186.785 34.9023H188.533C188.648 34.9023 188.759 34.8992 188.868 34.8931C188.893 34.8915 188.919 34.89 188.944 34.89C189.05 34.8838 189.153 34.8746 189.253 34.8638C189.267 34.8623 189.281 34.8608 189.295 34.8577C189.612 34.8208 189.898 34.7561 190.153 34.6684C190.169 34.6638 190.184 34.6592 190.199 34.6531C190.278 34.6254 190.352 34.5946 190.423 34.5623C190.441 34.5546 190.458 34.5469 190.475 34.5377C190.781 34.3915 191.03 34.1992 191.221 33.9638C191.233 33.9499 191.244 33.9361 191.255 33.9207C191.298 33.8668 191.338 33.8099 191.374 33.7515C191.381 33.7407 191.387 33.7284 191.394 33.7161C191.507 33.5222 191.589 33.3068 191.64 33.0653C191.643 33.0499 191.646 33.036 191.649 33.0206C191.663 32.9453 191.674 32.8683 191.683 32.7868C191.684 32.7668 191.686 32.7452 191.689 32.7237H191.687ZM195.321 30.0066C195.321 30.0128 195.322 30.0204 195.322 30.0281L195.334 33.1176C195.333 33.2807 195.324 33.4391 195.31 33.5945C195.307 33.6345 195.304 33.6761 195.299 33.7161C195.284 33.8653 195.264 34.0115 195.236 34.153C195.231 34.1823 195.224 34.2099 195.217 34.2392C195.122 34.6915 194.968 35.1023 194.754 35.4669C194.742 35.4885 194.73 35.51 194.717 35.5316C194.65 35.6439 194.574 35.75 194.494 35.8531C194.474 35.8808 194.451 35.907 194.43 35.9331C194.068 36.3762 193.597 36.7378 193.022 37.0147C192.989 37.0301 192.957 37.0471 192.923 37.0609C192.789 37.1224 192.648 37.1809 192.501 37.2332C192.474 37.244 192.443 37.2532 192.415 37.2624C191.935 37.4286 191.394 37.5486 190.796 37.6194C190.77 37.624 190.746 37.6271 190.718 37.6302C190.53 37.6517 190.335 37.6671 190.135 37.6794C190.087 37.6825 190.039 37.684 189.992 37.6871C189.785 37.6963 189.576 37.704 189.359 37.704H186.063C184.052 37.7302 182.514 37.3578 181.477 36.6009C181.427 36.5639 181.382 36.5224 181.334 36.4839C181.246 36.4147 181.16 36.3455 181.082 36.2716C181.013 36.207 180.951 36.1347 180.889 36.0654C180.839 36.0101 180.788 35.9578 180.742 35.9008C180.669 35.81 180.606 35.7147 180.543 35.6193C180.516 35.5762 180.485 35.5331 180.459 35.4885C180.392 35.3762 180.334 35.2592 180.277 35.1392C180.262 35.1054 180.245 35.0715 180.231 35.0377C180.174 34.9038 180.125 34.7654 180.082 34.6238C180.074 34.5977 180.066 34.5715 180.058 34.5438C180.014 34.3915 179.98 34.233 179.951 34.0715C179.948 34.0515 179.943 34.0315 179.94 34.0115C179.912 33.8407 179.892 33.6638 179.882 33.4807C179.882 33.473 179.88 33.4668 179.88 33.4591L179.868 30.3697C179.868 30.2051 179.878 30.0481 179.891 29.8927C179.894 29.8527 179.897 29.8112 179.902 29.7712C179.917 29.622 179.938 29.4758 179.965 29.3343C179.971 29.305 179.977 29.2758 179.983 29.2481C180.079 28.7942 180.234 28.385 180.446 28.0203C180.46 27.9988 180.471 27.9757 180.485 27.9557C180.551 27.8434 180.628 27.7357 180.706 27.6326C180.728 27.6064 180.749 27.5788 180.771 27.5526C181.134 27.1095 181.603 26.7495 182.181 26.471C182.213 26.4556 182.245 26.4402 182.278 26.4248C182.413 26.3633 182.553 26.3048 182.701 26.2525C182.728 26.2433 182.758 26.2341 182.787 26.2233C183.267 26.0587 183.807 25.9386 184.406 25.8663C184.432 25.8633 184.456 25.8586 184.483 25.8571C184.672 25.8356 184.867 25.8202 185.066 25.8079C185.114 25.8048 185.163 25.8017 185.21 25.8002C185.415 25.7894 185.624 25.7833 185.841 25.7833L189.138 25.7771V25.7817C191.15 25.7556 192.685 26.1294 193.723 26.8864C193.774 26.9218 193.819 26.9633 193.868 27.0018C193.954 27.071 194.04 27.1403 194.119 27.2157C194.188 27.2803 194.25 27.3526 194.313 27.4218C194.362 27.4757 194.413 27.528 194.459 27.5864C194.53 27.6757 194.594 27.7711 194.657 27.8665C194.685 27.9111 194.716 27.9526 194.742 27.9988C194.808 28.1096 194.868 28.228 194.924 28.348C194.939 28.3819 194.956 28.4142 194.971 28.4496C195.027 28.5819 195.074 28.7204 195.119 28.8635C195.127 28.8896 195.136 28.9158 195.144 28.9419C195.185 29.0942 195.222 29.2527 195.25 29.4158C195.253 29.4358 195.258 29.4558 195.261 29.4743C195.288 29.6466 195.308 29.8235 195.319 30.0066H195.321Z" fill="#060F35"/>
<path d="M209.175 28.2465V25.7771H197.175V37.7117H200.806V28.2465H209.175Z" fill="#060F35"/>
<path d="M82.3242 10.2898V22.2229H85.9574V12.7576H93.5454V22.2229H97.1785V10.2898H82.3242Z" fill="#060F35"/>
<path d="M162.377 22.2231V10.29H174.378V12.7594H166.01V15.0227H174.378V17.492H170.342H166.01V19.7553H174.378V22.2231H162.377Z" fill="#060F35"/>
<path d="M278.571 22.2246V10.29H290.571V12.7594H282.204V15.0226H290.571V17.492H286.534H282.204V19.7553H290.571V22.2246H278.571Z" fill="#060F35"/>
<path d="M145.49 10.29V22.2231H149.122V12.7594H156.711V22.2231H160.345V10.29H145.49Z" fill="#060F35"/>
<path d="M164.941 25.7771V28.2465V33.7191C164.941 34.4284 164.367 35.0023 163.659 35.0023H162.605V37.7117H164.478C166.74 37.7117 168.574 35.8777 168.574 33.6161V28.2465H174.419V37.7117H178.052V25.7771H164.941Z" fill="#060F35"/>
<path d="M184.044 16.0458L191.089 10.2854H186.047C184.215 11.8455 181.7 14.0303 179.868 15.5904V15.0211V13.8102V10.2885H176.234V22.2231H179.868V19.9983V17.4905V16.9197C182.159 18.6875 184.45 20.4568 186.741 22.2246H192.067L184.044 16.0458Z" fill="#060F35"/>
<path d="M268.39 17.466C268.395 17.5106 268.398 17.5567 268.398 17.606L268.394 18.5122C268.393 18.5137 268.393 18.5168 268.393 18.5183C268.39 18.5722 268.384 18.6245 268.376 18.6753C268.374 18.6799 268.374 18.686 268.373 18.6922C268.365 18.7399 268.354 18.786 268.342 18.8307C268.339 18.8384 268.336 18.846 268.334 18.8537C268.321 18.8953 268.308 18.9368 268.29 18.9753C268.285 18.9861 268.282 18.9953 268.278 19.0061C268.261 19.0399 268.244 19.0753 268.224 19.1091C268.216 19.1214 268.207 19.1338 268.199 19.1461C268.181 19.1753 268.162 19.203 268.141 19.2291C268.128 19.2461 268.113 19.2615 268.097 19.2768C268.079 19.2984 268.062 19.3184 268.042 19.3384C268.017 19.3599 267.993 19.3799 267.967 19.3999C267.953 19.4122 267.941 19.4245 267.925 19.4353C267.62 19.6569 267.17 19.7661 266.579 19.7584V19.7599H266.128V19.763H260.997V16.2582H266.128H266.643C266.708 16.2582 266.769 16.2613 266.829 16.2643C266.843 16.2643 266.857 16.2659 266.871 16.2659C266.931 16.2705 266.988 16.2751 267.043 16.2813C267.051 16.2813 267.057 16.2828 267.066 16.2843C267.242 16.3043 267.4 16.3397 267.54 16.389C267.55 16.3905 267.559 16.3936 267.567 16.3967C267.61 16.412 267.651 16.429 267.69 16.4474C267.7 16.452 267.71 16.4567 267.719 16.4613C267.888 16.5428 268.027 16.649 268.131 16.7782C268.139 16.7859 268.145 16.7936 268.151 16.8013C268.174 16.8321 268.198 16.8644 268.218 16.8967C268.221 16.9028 268.224 16.909 268.228 16.9152C268.29 17.0229 268.336 17.1429 268.364 17.2752C268.365 17.2844 268.368 17.2921 268.37 17.3013C268.378 17.3429 268.384 17.386 268.388 17.4306C268.39 17.4413 268.389 17.4536 268.39 17.466ZM271.583 19.2338C271.583 19.2291 271.584 19.2245 271.584 19.2199L271.592 17.0367C271.591 16.9213 271.584 16.809 271.575 16.7013C271.572 16.6721 271.571 16.6428 271.568 16.6151C271.557 16.509 271.543 16.4059 271.523 16.3059C271.52 16.2843 271.514 16.2643 271.511 16.2443C271.443 15.9243 271.334 15.6351 271.183 15.3781C271.175 15.3627 271.167 15.3458 271.157 15.332C271.109 15.252 271.055 15.1766 271 15.1043C270.984 15.0858 270.969 15.0658 270.954 15.0473C270.698 14.735 270.366 14.4796 269.958 14.2827C269.935 14.2719 269.913 14.2611 269.89 14.2504C269.793 14.2073 269.695 14.1657 269.59 14.1288C269.572 14.1211 269.55 14.115 269.53 14.1088C269.19 13.9903 268.808 13.9073 268.385 13.855C268.368 13.8534 268.35 13.8519 268.331 13.8488C268.198 13.8334 268.061 13.8226 267.919 13.815C267.885 13.8119 267.851 13.8103 267.817 13.8088C267.673 13.8026 267.524 13.798 267.371 13.798H266.943V13.7965H260.999V10.2886H257.366V22.2216H259.569V22.2247H266.943V22.2216H267.216V22.2186C268.636 22.237 269.721 21.9755 270.455 21.4401C270.49 21.4139 270.521 21.3847 270.557 21.357C270.617 21.3077 270.678 21.26 270.734 21.2062C270.783 21.16 270.826 21.1108 270.87 21.0616C270.906 21.0216 270.941 20.9846 270.974 20.9446C271.024 20.8816 271.069 20.8139 271.114 20.7462C271.134 20.7154 271.155 20.6862 271.174 20.6539C271.221 20.5754 271.263 20.4923 271.303 20.4077C271.314 20.3831 271.326 20.36 271.335 20.3354C271.375 20.2415 271.409 20.1431 271.441 20.043C271.446 20.0246 271.452 20.0061 271.458 19.9861C271.488 19.88 271.512 19.7676 271.534 19.6522C271.535 19.6384 271.537 19.6246 271.54 19.6107C271.56 19.4892 271.572 19.3645 271.581 19.2353L271.583 19.2338Z" fill="#060F35"/>
<path d="M82.3242 25.7725H96.5214V28.2357H91.254V37.7101H87.6224V28.2357H82.3242V25.7725Z" fill="#060F35"/>
<path d="M128.027 37.7101L122.181 31.6313L127.82 25.7725H123.534C122.317 27.091 120.715 28.8527 119.379 30.3097C118.04 28.8527 116.44 27.091 115.223 25.7725H110.937L116.577 31.6313L110.729 37.7101H114.992C116.454 36.187 117.916 34.6638 119.379 33.1422C120.841 34.6638 122.303 36.187 123.765 37.7101H128.027Z" fill="#060F35"/>
<path d="M128.68 37.7087V25.7756H132.313V30.5067H140.832V25.7756H144.465V37.7087H140.832V32.9761H136.643H136.502H132.313V37.7087H128.68Z" fill="#060F35"/>
</g>
<defs>
<clipPath id="clip0_463_2">
<rect width="291" height="48" fill="white"/>
</clipPath>
</defs>
</svg>
