<svg  viewBox="0 0 66 48" xmlns="http://www.w3.org/2000/svg" style="transition: color 0.5s;"><path d="M25.8079 13.5386L19.9513 23.741H31.6646L25.8079 13.5386Z" fill="currentColor"></path><path d="M15.1564 0L7.5621 13.247V23.7409H19.5007V13.1822L27.0628 0H15.1564Z" fill="currentColor"></path><path d="M32.115 47.9676H45.4695L32.115 24.6802V47.9676Z" fill="currentColor"></path><path d="M19.5328 24.2267H7.5621V47.9676H19.5328V24.2267Z" fill="currentColor"></path><path d="M54.1902 24.2267C47.6899 24.2267 42.3803 29.5708 42.3803 36.1133C42.3803 42.6558 47.6899 48 54.1902 48C60.6904 48 66 42.6558 66 36.1133C66 29.5384 60.7226 24.2267 54.1902 24.2267Z" fill="currentColor"></path><path d="M19.9834 24.2267V47.9676C26.4836 47.9676 31.7932 42.6235 31.7932 36.0809C31.7932 29.5384 26.4836 24.2267 19.9834 24.2267Z" fill="currentColor"></path><path d="M32.2116 23.7408H47.0141L33.4988 0.161865L26.0975 13.085L32.2116 23.7408Z" fill="currentColor"></path><path d="M32.4048 24.2267L38.9693 35.6923C41.415 34.9473 43.0883 32.6801 43.0883 30.089C43.0883 26.8502 40.4818 24.2267 37.2638 24.2267H32.4048Z" fill="currentColor"></path><path d="M0 0L7.30472 12.7611L14.6094 0H0Z" fill="currentColor"></path></svg>